<?xml version="1.0" encoding="UTF-8" standalone="no"?>
<!DOCTYPE svg PUBLIC "-//W3C//DTD SVG 1.1//EN"
 "http://www.w3.org/Graphics/SVG/1.1/DTD/svg11.dtd">
<!-- Generated by graphviz version 14.1.2 (20260124.0452)
 -->
<!-- Title: G Pages: 1 -->
<svg width="1059pt" height="290pt"
 viewBox="0.00 0.00 1059.00 290.00" xmlns="http://www.w3.org/2000/svg" xmlns:xlink="http://www.w3.org/1999/xlink">
<g id="graph0" class="graph" transform="scale(1 1) rotate(0) translate(21.6 268.7)">
<title>G</title>
<polygon fill="#111111" stroke="none" points="-21.6,21.6 -21.6,-268.7 1037.85,-268.7 1037.85,21.6 -21.6,21.6"/>
<!-- background.js -->
<g id="node1" class="node">
<title>background.js</title>
<path fill="none" stroke="#cfffac" d="M96.21,-101.75C96.21,-101.75 12.04,-101.75 12.04,-101.75 8.08,-101.75 4.12,-97.79 4.12,-93.83 4.12,-93.83 4.12,-85.92 4.12,-85.92 4.12,-81.96 8.08,-78 12.04,-78 12.04,-78 96.21,-78 96.21,-78 100.17,-78 104.12,-81.96 104.12,-85.92 104.12,-85.92 104.12,-93.83 104.12,-93.83 104.12,-97.79 100.17,-101.75 96.21,-101.75"/>
<text xml:space="preserve" text-anchor="middle" x="54.12" y="-84.45" font-family="Arial" font-size="14.00" fill="#cfffac">background.js</text>
</g>
<!-- background/oauth.js -->
<g id="node2" class="node">
<title>background/oauth.js</title>
<path fill="none" stroke="#cfffac" d="M1008.33,-197.75C1008.33,-197.75 886.67,-197.75 886.67,-197.75 882.71,-197.75 878.75,-193.79 878.75,-189.83 878.75,-189.83 878.75,-181.92 878.75,-181.92 878.75,-177.96 882.71,-174 886.67,-174 886.67,-174 1008.33,-174 1008.33,-174 1012.29,-174 1016.25,-177.96 1016.25,-181.92 1016.25,-181.92 1016.25,-189.83 1016.25,-189.83 1016.25,-193.79 1012.29,-197.75 1008.33,-197.75"/>
<text xml:space="preserve" text-anchor="middle" x="947.5" y="-180.45" font-family="Arial" font-size="14.00" fill="#cfffac">background/oauth.js</text>
</g>
<!-- popup/pickerConfig.js -->
<g id="node3" class="node">
<title>popup/pickerConfig.js</title>
<path fill="none" stroke="#cfffac" d="M669.58,-43.75C669.58,-43.75 539.67,-43.75 539.67,-43.75 535.71,-43.75 531.75,-39.79 531.75,-35.83 531.75,-35.83 531.75,-27.92 531.75,-27.92 531.75,-23.96 535.71,-20 539.67,-20 539.67,-20 669.58,-20 669.58,-20 673.54,-20 677.5,-23.96 677.5,-27.92 677.5,-27.92 677.5,-35.83 677.5,-35.83 677.5,-39.79 673.54,-43.75 669.58,-43.75"/>
<text xml:space="preserve" text-anchor="middle" x="604.62" y="-26.45" font-family="Arial" font-size="14.00" fill="#cfffac">popup/pickerConfig.js</text>
</g>
<!-- popup/popup.js -->
<g id="node4" class="node">
<title>popup/popup.js</title>
<path fill="none" stroke="#c6c5fe" d="M100.33,-143.75C100.33,-143.75 7.92,-143.75 7.92,-143.75 3.96,-143.75 0,-139.79 0,-135.83 0,-135.83 0,-127.92 0,-127.92 0,-123.96 3.96,-120 7.92,-120 7.92,-120 100.33,-120 100.33,-120 104.29,-120 108.25,-123.96 108.25,-127.92 108.25,-127.92 108.25,-135.83 108.25,-135.83 108.25,-139.79 104.29,-143.75 100.33,-143.75"/>
<text xml:space="preserve" text-anchor="middle" x="54.12" y="-126.45" font-family="Arial" font-size="14.00" fill="#c6c5fe">popup/popup.js</text>
</g>
<!-- popup/popup.js&#45;&gt;background/oauth.js -->
<g id="edge1" class="edge">
<title>popup/popup.js&#45;&gt;background/oauth.js</title>
<path fill="none" stroke="#757575" d="M69.22,-144.02C85.97,-157.78 115.3,-179.87 144.25,-191.88 259.46,-239.65 294.91,-245.88 419.62,-245.88 419.62,-245.88 419.62,-245.88 605.62,-245.88 711.35,-245.88 739.76,-250.79 842.75,-226.88 866.31,-221.4 891.57,-211.52 911.27,-202.82"/>
<polygon fill="#757575" stroke="#757575" points="912.55,-206.08 920.21,-198.77 909.66,-199.71 912.55,-206.08"/>
</g>
<!-- popup/popup.js&#45;&gt;popup/pickerConfig.js -->
<g id="edge2" class="edge">
<title>popup/popup.js&#45;&gt;popup/pickerConfig.js</title>
<path fill="none" stroke="#757575" d="M92.83,-119.51C98.22,-117.03 103.53,-114.16 108.25,-110.88 127.89,-97.23 122.83,-81.52 144.25,-70.88 177,-54.59 397.19,-41.68 520.45,-35.62"/>
<polygon fill="#757575" stroke="#757575" points="520.37,-39.13 530.19,-35.15 520.03,-32.14 520.37,-39.13"/>
</g>
<!-- services/autofill.js -->
<g id="node5" class="node">
<title>services/autofill.js</title>
<path fill="none" stroke="#c6c5fe" d="M279.83,-103.75C279.83,-103.75 173.92,-103.75 173.92,-103.75 169.96,-103.75 166,-99.79 166,-95.83 166,-95.83 166,-87.92 166,-87.92 166,-83.96 169.96,-80 173.92,-80 173.92,-80 279.83,-80 279.83,-80 283.79,-80 287.75,-83.96 287.75,-87.92 287.75,-87.92 287.75,-95.83 287.75,-95.83 287.75,-99.79 283.79,-103.75 279.83,-103.75"/>
<text xml:space="preserve" text-anchor="middle" x="226.88" y="-86.45" font-family="Arial" font-size="14.00" fill="#c6c5fe">services/autofill.js</text>
</g>
<!-- popup/popup.js&#45;&gt;services/autofill.js -->
<g id="edge3" class="edge">
<title>popup/popup.js&#45;&gt;services/autofill.js</title>
<path fill="none" stroke="#757575" d="M107.75,-119.55C124.87,-115.54 144.06,-111.04 161.92,-106.86"/>
<polygon fill="#757575" stroke="#757575" points="162.72,-110.26 171.66,-104.58 161.12,-103.45 162.72,-110.26"/>
</g>
<!-- services/caching.js -->
<g id="node6" class="node">
<title>services/caching.js</title>
<path fill="none" stroke="#c6c5fe" d="M834.83,-217.75C834.83,-217.75 721.42,-217.75 721.42,-217.75 717.46,-217.75 713.5,-213.79 713.5,-209.83 713.5,-209.83 713.5,-201.92 713.5,-201.92 713.5,-197.96 717.46,-194 721.42,-194 721.42,-194 834.83,-194 834.83,-194 838.79,-194 842.75,-197.96 842.75,-201.92 842.75,-201.92 842.75,-209.83 842.75,-209.83 842.75,-213.79 838.79,-217.75 834.83,-217.75"/>
<text xml:space="preserve" text-anchor="middle" x="778.12" y="-200.45" font-family="Arial" font-size="14.00" fill="#c6c5fe">services/caching.js</text>
</g>
<!-- popup/popup.js&#45;&gt;services/caching.js -->
<g id="edge4" class="edge">
<title>popup/popup.js&#45;&gt;services/caching.js</title>
<path fill="none" stroke="#757575" d="M82.21,-144.25C99.57,-151.58 122.79,-160.31 144.25,-164.88 342.47,-207.05 582.82,-209.77 702.25,-207.97"/>
<polygon fill="#757575" stroke="#757575" points="701.97,-211.48 711.91,-207.81 701.85,-204.48 701.97,-211.48"/>
</g>
<!-- services/pickerHandler.js -->
<g id="node7" class="node">
<title>services/pickerHandler.js</title>
<path fill="none" stroke="#c6c5fe" d="M301.58,-23.75C301.58,-23.75 152.17,-23.75 152.17,-23.75 148.21,-23.75 144.25,-19.79 144.25,-15.83 144.25,-15.83 144.25,-7.92 144.25,-7.92 144.25,-3.96 148.21,0 152.17,0 152.17,0 301.58,0 301.58,0 305.54,0 309.5,-3.96 309.5,-7.92 309.5,-7.92 309.5,-15.83 309.5,-15.83 309.5,-19.79 305.54,-23.75 301.58,-23.75"/>
<text xml:space="preserve" text-anchor="middle" x="226.88" y="-6.45" font-family="Arial" font-size="14.00" fill="#c6c5fe">services/pickerHandler.js</text>
</g>
<!-- popup/popup.js&#45;&gt;services/pickerHandler.js -->
<g id="edge5" class="edge">
<title>popup/popup.js&#45;&gt;services/pickerHandler.js</title>
<path fill="none" stroke="#757575" d="M95.61,-119.64C100.18,-117.2 104.53,-114.3 108.25,-110.88 134.85,-86.36 116.83,-61.47 144.25,-37.88 148.1,-34.57 152.37,-31.68 156.88,-29.16"/>
<polygon fill="#757575" stroke="#757575" points="158.25,-32.38 165.71,-24.86 155.19,-26.09 158.25,-32.38"/>
</g>
<!-- services/youtubeApi.js -->
<g id="node8" class="node">
<title>services/youtubeApi.js</title>
<path fill="none" stroke="#c6c5fe" d="M487.83,-140.75C487.83,-140.75 353.42,-140.75 353.42,-140.75 349.46,-140.75 345.5,-136.79 345.5,-132.83 345.5,-132.83 345.5,-124.92 345.5,-124.92 345.5,-120.96 349.46,-117 353.42,-117 353.42,-117 487.83,-117 487.83,-117 491.79,-117 495.75,-120.96 495.75,-124.92 495.75,-124.92 495.75,-132.83 495.75,-132.83 495.75,-136.79 491.79,-140.75 487.83,-140.75"/>
<text xml:space="preserve" text-anchor="middle" x="420.62" y="-123.45" font-family="Arial" font-size="14.00" fill="#c6c5fe">services/youtubeApi.js</text>
</g>
<!-- popup/popup.js&#45;&gt;services/youtubeApi.js -->
<g id="edge6" class="edge">
<title>popup/popup.js&#45;&gt;services/youtubeApi.js</title>
<path fill="none" stroke="#757575" d="M108.52,-131.44C167.71,-130.95 264.03,-130.16 333.83,-129.58"/>
<polygon fill="#757575" stroke="#757575" points="333.74,-133.08 343.71,-129.5 333.69,-126.08 333.74,-133.08"/>
</g>
<!-- utils/utils.js -->
<g id="node9" class="node">
<title>utils/utils.js</title>
<path fill="none" stroke="#c6c5fe" d="M637.33,-179.75C637.33,-179.75 571.92,-179.75 571.92,-179.75 567.96,-179.75 564,-175.79 564,-171.83 564,-171.83 564,-163.92 564,-163.92 564,-159.96 567.96,-156 571.92,-156 571.92,-156 637.33,-156 637.33,-156 641.29,-156 645.25,-159.96 645.25,-163.92 645.25,-163.92 645.25,-171.83 645.25,-171.83 645.25,-175.79 641.29,-179.75 637.33,-179.75"/>
<text xml:space="preserve" text-anchor="middle" x="604.62" y="-162.45" font-family="Arial" font-size="14.00" fill="#c6c5fe">utils/utils.js</text>
</g>
<!-- popup/popup.js&#45;&gt;utils/utils.js -->
<g id="edge7" class="edge">
<title>popup/popup.js&#45;&gt;utils/utils.js</title>
<path fill="none" stroke="#757575" d="M108.28,-140.47C120.1,-142.15 132.58,-143.73 144.25,-144.88 291.88,-159.31 467.14,-164.9 552.2,-166.89"/>
<polygon fill="#757575" stroke="#757575" points="552,-170.39 562.08,-167.11 552.16,-163.39 552,-170.39"/>
</g>
<!-- services/autofill.js&#45;&gt;services/youtubeApi.js -->
<g id="edge8" class="edge">
<title>services/autofill.js&#45;&gt;services/youtubeApi.js</title>
<path fill="none" stroke="#757575" d="M288.02,-103.48C305.93,-106.94 325.78,-110.77 344.52,-114.38"/>
<polygon fill="#757575" stroke="#757575" points="343.74,-117.8 354.23,-116.26 345.07,-110.92 343.74,-117.8"/>
</g>
<!-- services/caching.js&#45;&gt;background/oauth.js -->
<g id="edge9" class="edge">
<title>services/caching.js&#45;&gt;background/oauth.js</title>
<path fill="none" stroke="#757575" d="M842.88,-198.26C850.79,-197.31 858.96,-196.34 867.07,-195.37"/>
<polygon fill="#757575" stroke="#757575" points="867.45,-198.85 876.96,-194.18 866.62,-191.9 867.45,-198.85"/>
</g>
<!-- services/picker.js -->
<g id="node10" class="node">
<title>services/picker.js</title>
<path fill="none" stroke="#c6c5fe" d="M471.71,-23.75C471.71,-23.75 369.54,-23.75 369.54,-23.75 365.58,-23.75 361.62,-19.79 361.62,-15.83 361.62,-15.83 361.62,-7.92 361.62,-7.92 361.62,-3.96 365.58,0 369.54,0 369.54,0 471.71,0 471.71,0 475.67,0 479.62,-3.96 479.62,-7.92 479.62,-7.92 479.62,-15.83 479.62,-15.83 479.62,-19.79 475.67,-23.75 471.71,-23.75"/>
<text xml:space="preserve" text-anchor="middle" x="420.62" y="-6.45" font-family="Arial" font-size="14.00" fill="#c6c5fe">services/picker.js</text>
</g>
<!-- services/pickerHandler.js&#45;&gt;services/picker.js -->
<g id="edge11" class="edge">
<title>services/pickerHandler.js&#45;&gt;services/picker.js</title>
<path fill="none" stroke="#757575" d="M309.75,-11.88C323.13,-11.88 336.89,-11.88 349.94,-11.88"/>
<polygon fill="#757575" stroke="#757575" points="349.7,-15.38 359.7,-11.88 349.7,-8.38 349.7,-15.38"/>
</g>
<!-- services/youtubeApi.js&#45;&gt;background/oauth.js -->
<g id="edge12" class="edge">
<title>services/youtubeApi.js&#45;&gt;background/oauth.js</title>
<path fill="none" stroke="#757575" d="M496.2,-132.78C547.3,-135.78 616.6,-140.5 677.5,-146.88 751.25,-154.59 769.38,-159.11 842.75,-169.88 850.68,-171.04 858.96,-172.28 867.21,-173.53"/>
<polygon fill="#757575" stroke="#757575" points="866.53,-176.96 876.94,-175 867.58,-170.04 866.53,-176.96"/>
</g>
<!-- services/youtubeApi.js&#45;&gt;utils/utils.js -->
<g id="edge13" class="edge">
<title>services/youtubeApi.js&#45;&gt;utils/utils.js</title>
<path fill="none" stroke="#757575" d="M479.21,-141.21C502.73,-146.25 529.71,-152.04 552.52,-156.92"/>
<polygon fill="#757575" stroke="#757575" points="551.69,-160.33 562.2,-159 553.16,-153.48 551.69,-160.33"/>
</g>
<!-- utils/utils.js&#45;&gt;background/oauth.js -->
<g id="edge14" class="edge">
<title>utils/utils.js&#45;&gt;background/oauth.js</title>
<path fill="none" stroke="#757575" d="M645.73,-169.99C699.91,-172.85 797.68,-178.02 867.03,-181.68"/>
<polygon fill="#757575" stroke="#757575" points="866.65,-185.16 876.82,-182.2 867.02,-178.17 866.65,-185.16"/>
</g>
<!-- utils/utils.js&#45;&gt;services/caching.js -->
<g id="edge15" class="edge">
<title>utils/utils.js&#45;&gt;services/caching.js</title>
<path fill="none" stroke="#757575" d="M645.4,-176.69C664.7,-180.96 688.41,-186.22 710.37,-191.08"/>
<polygon fill="#757575" stroke="#757575" points="709.33,-194.44 719.85,-193.18 710.84,-187.6 709.33,-194.44"/>
</g>
<!-- services/picker.js&#45;&gt;popup/pickerConfig.js -->
<g id="edge10" class="edge">
<title>services/picker.js&#45;&gt;popup/pickerConfig.js</title>
<path fill="none" stroke="#757575" d="M479.96,-18.29C492.71,-19.69 506.45,-21.2 519.98,-22.68"/>
<polygon fill="#757575" stroke="#757575" points="519.43,-26.14 529.75,-23.76 520.19,-19.19 519.43,-26.14"/>
</g>
</g>
</svg>
